<svg width="122" height="58" viewBox="0 0 122 58" fill="none" xmlns="http://www.w3.org/2000/svg">
<path d="M19.331 6.92887C19.331 6.14782 18.96 5.48392 18.218 4.93719C17.5151 4.3514 17.1636 3.92182 17.1636 3.64845V3.5313C17.1636 3.06267 17.5736 2.82835 18.3937 2.82835H25.7747C26.5167 2.82835 26.8877 3.06267 26.8877 3.5313V3.64845C26.8877 3.92182 26.6924 4.19519 26.3019 4.46856C25.9504 4.74193 25.5794 5.07387 25.1889 5.4644C24.8374 5.85492 24.6617 6.34308 24.6617 6.92887L24.6031 29.4817C24.5641 39.7525 20.4245 44.927 12.1844 45.0051C10.0756 45.0051 8.20103 44.6927 6.56083 44.0678C4.92062 43.443 3.63189 42.6229 2.69463 41.6075C1.79642 40.5922 1.113 39.5768 0.644367 38.5614C0.214789 37.507 0 36.5112 0 35.5739C0 34.7538 0.214789 34.1094 0.644367 33.6408C1.113 33.1331 1.73784 32.8793 2.51889 32.8793C3.37805 32.8793 4.06147 33.2112 4.56915 33.8751C5.07683 34.539 5.46736 35.3591 5.74072 36.3354C6.01409 37.2727 6.34604 38.2295 6.73656 39.2058C7.16614 40.1431 7.86909 40.9436 8.8454 41.6075C9.82172 42.2714 11.0909 42.6034 12.653 42.6034C14.6057 42.6034 16.2068 41.6856 17.4565 39.8502C18.7062 37.9756 19.331 35.3396 19.331 31.942V6.92887Z" fill="black"/>
<path d="M57.8022 39.3815C57.8022 40.3578 57.9779 41.0998 58.3294 41.6075C58.6809 42.1152 59.0519 42.4081 59.4424 42.4862C59.8329 42.5253 60.2039 42.6229 60.5554 42.7791C60.9069 42.9353 61.0826 43.1892 61.0826 43.5406C61.0826 44.3607 59.872 44.7708 57.4507 44.7708C54.4827 44.7708 53.0573 43.3258 53.1745 40.436L53.0573 40.0845C51.2609 43.3649 48.2538 45.0051 44.0362 45.0051C40.7558 45.0051 38.1197 43.853 36.128 41.5489C34.1754 39.2058 33.1991 35.9059 33.1991 31.6491V21.2807C33.1991 20.4215 32.8281 19.699 32.0861 19.1133C31.3831 18.5275 31.0317 18.1174 31.0317 17.8831V17.7074C31.0317 17.2387 31.3246 16.9458 31.9104 16.8287L36.831 15.95C37.8854 15.7547 38.4126 15.9891 38.4126 16.653L38.354 32.0592C38.354 35.4568 38.9398 38.0928 40.1114 39.9673C41.322 41.8028 43.0403 42.7205 45.2663 42.7205C47.3752 42.7205 49.1325 41.9004 50.5384 40.2602C51.9834 38.62 52.7058 36.4721 52.7058 33.8165V21.2807C52.7058 20.4606 52.3153 19.7576 51.5343 19.1718C50.7923 18.5861 50.4213 18.1565 50.4213 17.8831V17.7074C50.4213 17.2387 50.7142 16.9458 51.2999 16.8287L56.2791 15.95C57.2945 15.7547 57.8022 15.9891 57.8022 16.653V39.3815Z" fill="black"/>
<path d="M65.7941 44.4193C65.0521 44.4193 64.6811 44.1655 64.6811 43.6578V43.4821C64.6811 43.1696 65.013 42.7596 65.6769 42.2519C66.3799 41.7052 66.7313 41.0608 66.7313 40.3188V7.3975C66.7313 6.7336 66.5556 6.18687 66.2041 5.75729C65.8917 5.28866 65.5598 4.91766 65.2083 4.64429C64.8568 4.37093 64.6811 4.11708 64.6811 3.88277V3.76561C64.6811 3.45319 64.9545 3.14077 65.5012 2.82835L70.0703 0.602356C70.6561 0.368042 71.1052 0.348516 71.4176 0.543778C71.7301 0.699986 71.8863 0.99288 71.8863 1.42246V40.3188C71.8863 41.0608 72.2573 41.7052 72.9993 42.2519C73.7803 42.7596 74.1709 43.1696 74.1709 43.4821V43.6578C74.1709 44.1655 73.7803 44.4193 72.9993 44.4193H65.7941Z" fill="black"/>
<path d="M83.3284 10.7365C82.1177 10.7365 81.161 10.4045 80.458 9.74065C79.7551 9.07676 79.4036 8.19808 79.4036 7.1046C79.4036 6.01113 79.7551 5.13245 80.458 4.46856C81.2 3.76561 82.1568 3.41414 83.3284 3.41414C84.4609 3.41414 85.3786 3.76561 86.0816 4.46856C86.7845 5.13245 87.136 6.01113 87.136 7.1046C87.136 8.19808 86.7845 9.07676 86.0816 9.74065C85.3786 10.4045 84.4609 10.7365 83.3284 10.7365ZM79.9308 44.4193C79.1888 44.4193 78.8178 44.1655 78.8178 43.6578V43.4235C78.8178 43.1501 78.9935 42.8963 79.345 42.6619C79.6965 42.3886 80.048 42.0762 80.3994 41.7247C80.7509 41.3342 80.9266 40.846 80.9266 40.2602V22.8037C80.9266 21.9055 80.5752 21.1245 79.8722 20.4606C79.1693 19.7967 78.8178 19.3671 78.8178 19.1718V19.0547C78.8178 18.7813 79.1107 18.4884 79.6965 18.176L84.2071 15.95C84.8319 15.7157 85.281 15.6766 85.5544 15.8328C85.8668 15.9891 86.023 16.3015 86.023 16.7701V40.2602C86.023 40.7288 86.1402 41.1389 86.3745 41.4904C86.6088 41.8028 86.8821 42.0371 87.1946 42.1933C87.507 42.3495 87.7804 42.5448 88.0147 42.7791C88.249 42.9744 88.3661 43.1892 88.3661 43.4235V43.6578C88.3661 44.1655 87.9561 44.4193 87.136 44.4193H79.9308Z" fill="black"/>
<path d="M108.527 15.7157C112.237 15.7157 115.4 17.0435 118.017 19.699C120.672 22.3156 122 25.7327 122 29.9503C122 34.2461 120.692 37.839 118.075 40.7288C115.498 43.5797 112.334 45.0051 108.585 45.0051C104.993 45.0051 102.103 43.6578 99.9158 40.9632V53.5576C99.9158 54.1824 100.111 54.6901 100.502 55.0807C100.892 55.4712 101.263 55.7836 101.615 56.0179C102.005 56.2913 102.2 56.5646 102.2 56.838V57.0138C102.2 57.5214 101.81 57.7753 101.029 57.7753H93.8236C93.0035 57.7753 92.5934 57.5214 92.5934 57.0138V56.838C92.5934 56.6037 92.7106 56.3694 92.9449 56.1351C93.1792 55.9398 93.4135 55.7641 93.6479 55.6079C93.9212 55.4517 94.1751 55.1978 94.4094 54.8463C94.6437 54.4949 94.7609 54.0653 94.7609 53.5576V22.5108C94.7609 21.7688 94.3703 21.1245 93.5893 20.5777C92.8082 19.9919 92.4177 19.5428 92.4177 19.2304V19.0547C92.4177 18.5861 92.7301 18.2346 93.355 18.0003L97.5726 15.95C98.6661 15.4423 99.2128 15.7157 99.2128 16.7701L99.1543 20.6363C100.052 19.1133 101.322 17.9222 102.962 17.063C104.641 16.1648 106.496 15.7157 108.527 15.7157ZM107.883 43.1306C110.577 43.1306 112.725 42.0762 114.326 39.9673C115.966 37.8194 116.786 34.9491 116.786 31.3562C116.786 27.2948 115.908 23.9948 114.15 21.4564C112.393 18.8789 110.089 17.5902 107.238 17.5902C105.442 17.5902 103.821 18.2346 102.376 19.5233C100.97 20.773 100.15 22.296 99.9158 24.0925V34.1094C99.9158 36.4526 100.716 38.5419 102.318 40.3774C103.958 42.2128 105.813 43.1306 107.883 43.1306Z" fill="black"/>
</svg>
