<svg width="764" height="457" viewBox="0 0 764 457" fill="none" xmlns="http://www.w3.org/2000/svg">
<path d="M-922 92.2485C-915.664 149.276 -788.474 206.491 -742.509 213.787C-677.928 224.038 -623.148 230.416 -557.384 224.251C-487.849 217.732 -426.403 188.116 -364.21 157.445C-306.11 128.793 -243.622 102.581 -183.109 79.3702C-129.344 58.7482 -67.4772 35.3745 -9.25214 34.2963C18.3612 33.7849 56.2433 27.3514 77.6763 48.7843C112.641 83.7486 101.401 157.93 95.3839 200.909C82.7407 291.217 46.5632 377.317 23.7485 465.316C17.975 487.585 13.5491 528.821 20.1265 551.842C24.6383 567.633 69.4225 573.5 80.0397 573.5C141.086 573.5 175.964 551.885 218.935 504.756C337.183 375.064 460.722 217.421 639.894 179.982C776.071 151.527 930.929 172.227 1040.73 260.069C1134.84 335.355 1194.58 439.315 1265.7 534.134" stroke="#DCFFBA" stroke-width="66" stroke-linecap="round"/>
</svg>
