<svg width="1440" height="1328" viewBox="0 0 1440 1328" fill="none" xmlns="http://www.w3.org/2000/svg">
<path d="M1681.27 1320.89C1648.29 1343.26 1639.33 1305.69 1601.02 1305.69C1562.72 1305.69 1562.72 1322.03 1524.41 1322.03C1486.1 1322.03 1486.1 1305.69 1447.79 1305.69C1409.48 1305.69 1409.48 1322.03 1371.17 1322.03C1332.87 1322.03 1332.87 1305.69 1294.56 1305.69C1256.25 1305.69 1256.25 1322.03 1217.94 1322.03C1179.63 1322.03 1179.63 1305.69 1141.32 1305.69C1103.02 1305.69 1103.02 1322.03 1064.71 1322.03C1026.4 1322.03 1026.4 1305.69 988.09 1305.69C949.782 1305.69 949.782 1322.03 911.474 1322.03C873.165 1322.03 873.165 1305.69 834.857 1305.69C796.549 1305.69 796.549 1322.03 758.24 1322.03C719.932 1322.03 719.932 1305.69 681.619 1305.69C643.31 1305.69 643.31 1322.03 605.002 1322.03C566.694 1322.03 566.694 1305.69 528.385 1305.69C490.077 1305.69 490.077 1322.03 451.769 1322.03C413.46 1322.03 413.46 1305.69 375.147 1305.69C336.839 1305.69 336.839 1322.03 298.525 1322.03C260.217 1322.03 260.217 1305.69 221.908 1305.69C183.6 1305.69 183.6 1322.03 145.292 1322.03C106.983 1322.03 106.983 1305.69 68.6751 1305.69C30.3667 1305.69 30.3667 1322.03 -7.9467 1322.03C-46.2601 1322.03 -46.255 1305.69 -84.5685 1305.69C-122.882 1305.69 -122.882 1322.03 -161.19 1322.03C-199.499 1322.03 -201.213 1329.2 -234.19 1306.83C-253.693 1293.59 -244.939 1287.86 -244.939 1261.87C-244.939 1235.88 -230.696 1235.88 -230.696 1209.88C-230.696 1183.89 -244.939 1183.89 -244.939 1157.9C-244.939 1131.91 -230.696 1131.9 -230.696 1105.91C-230.696 1079.91 -244.939 1079.91 -244.939 1053.92C-244.939 1027.93 -230.696 1027.93 -230.696 1001.94C-230.696 975.949 -244.939 975.943 -244.939 949.948C-244.939 923.953 -230.696 923.953 -230.696 897.958C-230.696 871.962 -244.939 871.962 -244.939 845.973C-244.939 819.978 -230.696 819.977 -230.696 793.982C-230.696 767.987 -244.939 767.987 -244.939 741.992C-244.939 715.996 -230.696 715.996 -230.696 690.001C-230.696 664.006 -244.939 664.006 -244.939 638.01C-244.939 612.015 -230.696 612.015 -230.696 586.02C-230.696 560.025 -244.939 560.025 -244.939 534.035C-244.939 508.04 -230.696 508.04 -230.696 482.045C-230.696 456.049 -244.939 456.049 -244.939 430.054C-244.939 404.059 -230.696 404.059 -230.696 378.063C-230.696 352.068 -244.939 352.068 -244.939 326.073C-244.939 300.078 -230.696 300.078 -230.696 274.082C-230.696 248.087 -244.939 248.087 -244.939 222.092C-244.939 196.096 -230.696 196.097 -230.696 170.101C-230.696 144.106 -244.939 144.106 -244.939 118.111C-244.939 92.1154 -230.696 92.1154 -230.696 66.1201C-230.696 40.1248 -260.952 20.3439 -241.449 7.10991C-208.477 -15.2618 -199.514 22.3103 -161.205 22.3103C-122.897 22.3103 -122.897 5.97207 -84.5888 5.97207C-46.2805 5.97207 -46.2805 22.3103 -7.97214 22.3103C30.3362 22.3103 30.3362 5.97207 68.6445 5.97207C106.953 5.97207 106.953 22.3103 145.261 22.3103C183.57 22.3103 183.57 5.97207 221.878 5.97207C260.186 5.97207 260.186 22.3103 298.495 22.3103C336.803 22.3103 336.803 5.97207 375.111 5.97207C413.42 5.97207 413.42 22.3103 451.728 22.3103C490.036 22.3103 490.036 5.97207 528.345 5.97207C566.653 5.97207 566.653 22.3103 604.961 22.3103C643.27 22.3103 643.27 5.97207 681.578 5.97207C719.886 5.97207 719.886 22.3103 758.2 22.3103C796.513 22.3103 796.508 5.97207 834.816 5.97207C873.125 5.97207 873.125 22.3103 911.433 22.3103C949.741 22.3103 949.741 5.97207 988.05 5.97207C1026.36 5.97207 1026.36 22.3103 1064.67 22.3103C1102.98 22.3103 1102.98 5.97207 1141.29 5.97207C1179.61 5.97207 1179.6 22.3103 1217.91 22.3103C1256.22 22.3103 1256.22 5.97207 1294.53 5.97207C1332.83 5.97207 1332.83 22.3103 1371.14 22.3103C1409.45 22.3103 1409.45 5.97207 1447.76 5.97207C1486.08 5.97207 1486.07 22.3103 1524.39 22.3103C1562.7 22.3103 1562.7 5.97207 1601.01 5.97207C1639.32 5.97207 1641.03 -1.19925 1674.01 21.1725C1693.51 34.4064 1684.76 40.1365 1684.76 66.1259C1684.76 92.1154 1670.51 92.1212 1670.51 118.116C1670.51 144.112 1684.76 144.112 1684.76 170.101C1684.76 196.091 1670.51 196.096 1670.51 222.092C1670.51 248.087 1684.76 248.087 1684.76 274.077C1684.76 300.066 1670.51 300.072 1670.51 326.061C1670.51 352.051 1684.76 352.057 1684.76 378.052C1684.76 404.047 1670.51 404.047 1670.51 430.042C1670.51 456.038 1684.76 456.038 1684.76 482.027C1684.76 508.017 1670.51 508.022 1670.51 534.018C1670.51 560.013 1684.76 560.013 1684.76 586.008C1684.76 612.004 1670.51 612.004 1670.51 637.999C1670.51 663.994 1684.76 663.994 1684.76 689.989C1684.76 715.985 1670.51 715.985 1670.51 741.98C1670.51 767.975 1684.76 767.975 1684.76 793.965C1684.76 819.954 1670.51 819.96 1670.51 845.955C1670.51 871.951 1684.76 871.951 1684.76 897.946C1684.76 923.941 1670.51 923.941 1670.51 949.936C1670.51 975.932 1684.76 975.932 1684.76 1001.93C1684.76 1027.92 1670.51 1027.92 1670.51 1053.92C1670.51 1079.91 1684.76 1079.91 1684.76 1105.91C1684.76 1131.9 1670.51 1131.9 1670.51 1157.9C1670.51 1183.89 1684.76 1183.89 1684.76 1209.89C1684.76 1235.88 1664.83 1238.93 1670.76 1264.02C1678.14 1295.19 1700.76 1307.67 1681.26 1320.91L1681.27 1320.89Z" fill="#DCFFBA"/>
</svg>
