<svg width="355" height="10" viewBox="0 0 355 10" fill="none" xmlns="http://www.w3.org/2000/svg">
<path d="M2.19482 2C15.6957 2 15.6957 8 29.194 8C42.6923 8 42.6949 2 56.1959 2C69.6968 2 69.6968 8 83.195 8C96.6933 8 96.696 2 110.194 2C123.692 2 123.695 8 137.193 8C150.692 8 150.694 2 164.193 2C177.691 2 177.693 8 191.192 8C204.69 8 204.693 2 218.191 2C231.689 2 231.692 8 245.19 8C258.688 8 258.691 2 272.189 2C285.688 2 285.69 8 299.191 8C312.692 8 312.692 2 326.193 2C339.694 2 339.694 8 353.195 8" stroke="#DCFFBA" stroke-width="3" stroke-linecap="round" stroke-linejoin="round"/>
</svg>
